<svg width="24px" height="20px" viewBox="0 0 24 20" role="img" xmlns="http://www.w3.org/2000/svg">
  <title>Codeforces icon</title>
  <defs>
    <linearGradient id="grad1" x1="0" y1="0" x2="1" y2="0">
      <stop offset="0" stop-color="#F6C43D"/>
      <stop offset="1" stop-color="#FCD975"/>
    </linearGradient>
    <linearGradient id="grad2" x1="0" y1="0" x2="1" y2="0">
      <stop offset="0" stop-color="#1480C4"/>
      <stop offset="1" stop-color="#1C99D4"/>
    </linearGradient>
    <linearGradient id="grad3" x1="0" y1="0" x2="1" y2="0">
      <stop offset="0" stop-color="#B11E26"/>
      <stop offset="1" stop-color="#C21C24"/>
    </linearGradient>
  </defs>
  <g transform="translate(0, -1.5)">
    <path d="M4.5 7.5C5.328 7.5 6 8.172 6 9v10.5c0 .828-.672 1.5-1.5 1.5h-3C.673 21 0 20.328 0 19.5V9c0-.828.673-1.5 1.5-1.5h3z" fill="url(#grad1)"/>
    <path d="M13.5 3c.828 0 1.5.672 1.5 1.5v15c0 .828-.672 1.5-1.5 1.5h-3c-.827 0-1.5-.672-1.5-1.5v-15c0-.828.673-1.5 1.5-1.5h3z" fill="url(#grad2)"/>
    <path d="M22.5 10.5c.828 0 1.5.672 1.5 1.5v7.5c0 .828-.672 1.5-1.5 1.5h-3c-.828 0-1.5-.672-1.5-1.5V12c0-.828.672-1.5 1.5-1.5h3z" fill="url(#grad3)"/>
  </g>
</svg>